<?xml version="1.0" encoding="us-ascii" standalone="no"?><svg xmlns="http://www.w3.org/2000/svg" xmlns:xlink="http://www.w3.org/1999/xlink" contentStyleType="text/css" height="1522px" preserveAspectRatio="none" style="width:1689px;height:1522px;background:#FFFFFF;" version="1.1" viewBox="0 0 1689 1522" width="1689px" zoomAndPan="magnify"><defs/><g><text fill="#000000" font-family="sans-serif" font-size="14" font-weight="bold" lengthAdjust="spacing" textLength="290" x="700.75" y="29.5332">Cancel Own Booking - Sequence Diagram</text><rect fill="none" height="578.5078" style="stroke:#000000;stroke-width:1.5;" width="1672.5" x="10" y="444.0859"/><rect fill="none" height="190.9453" style="stroke:#000000;stroke-width:1.5;" width="1235.5" x="437" y="763.9453"/><rect fill="none" height="386.4063" style="stroke:#000000;stroke-width:1.5;" width="891" x="781.5" y="1036.5938"/><rect fill="none" height="111.2422" style="stroke:#000000;stroke-width:1.5;" width="280.5" x="1149.5" y="1304.7578"/><line style="stroke:#181818;stroke-width:0.5;stroke-dasharray:5.0,5.0;" x1="54" x2="54" y1="121.2188" y2="1440"/><line style="stroke:#181818;stroke-width:0.5;stroke-dasharray:5.0,5.0;" x1="235.5" x2="235.5" y1="121.2188" y2="1440"/><line style="stroke:#181818;stroke-width:0.5;stroke-dasharray:5.0,5.0;" x1="522" x2="522" y1="121.2188" y2="1440"/><line style="stroke:#181818;stroke-width:0.5;stroke-dasharray:5.0,5.0;" x1="832.5" x2="832.5" y1="121.2188" y2="1440"/><line style="stroke:#181818;stroke-width:0.5;stroke-dasharray:5.0,5.0;" x1="1026" x2="1026" y1="121.2188" y2="1440"/><line style="stroke:#181818;stroke-width:0.5;stroke-dasharray:5.0,5.0;" x1="1200.5" x2="1200.5" y1="121.2188" y2="1440"/><line style="stroke:#181818;stroke-width:0.5;stroke-dasharray:5.0,5.0;" x1="1371" x2="1371" y1="121.2188" y2="1440"/><line style="stroke:#181818;stroke-width:0.5;stroke-dasharray:5.0,5.0;" x1="1580.5" x2="1580.5" y1="121.2188" y2="1440"/><text fill="#000000" font-family="sans-serif" font-size="14" lengthAdjust="spacing" textLength="62" x="20" y="118.1426">Employee</text><ellipse cx="54" cy="52.1094" fill="#E2E2F0" rx="8" ry="8" style="stroke:#181818;stroke-width:0.5;"/><path d="M54,60.1094 L54,87.1094 M41,68.1094 L67,68.1094 M54,87.1094 L41,102.1094 M54,87.1094 L67,102.1094 " fill="none" style="stroke:#181818;stroke-width:0.5;"/><text fill="#000000" font-family="sans-serif" font-size="14" lengthAdjust="spacing" textLength="62" x="20" y="1453.5332">Employee</text><ellipse cx="54" cy="1465.1094" fill="#E2E2F0" rx="8" ry="8" style="stroke:#181818;stroke-width:0.5;"/><path d="M54,1473.1094 L54,1500.1094 M41,1481.1094 L67,1481.1094 M54,1500.1094 L41,1515.1094 M54,1500.1094 L67,1515.1094 " fill="none" style="stroke:#181818;stroke-width:0.5;"/><rect fill="#E2E2F0" height="31.6094" rx="2.5" ry="2.5" style="stroke:#181818;stroke-width:0.5;" width="105" x="183.5" y="88.6094"/><text fill="#000000" font-family="sans-serif" font-size="14" lengthAdjust="spacing" textLength="91" x="190.5" y="110.1426">Web Frontend</text><rect fill="#E2E2F0" height="31.6094" rx="2.5" ry="2.5" style="stroke:#181818;stroke-width:0.5;" width="105" x="183.5" y="1439"/><text fill="#000000" font-family="sans-serif" font-size="14" lengthAdjust="spacing" textLength="91" x="190.5" y="1460.5332">Web Frontend</text><rect fill="#E2E2F0" height="31.6094" rx="2.5" ry="2.5" style="stroke:#181818;stroke-width:0.5;" width="150" x="447" y="88.6094"/><text fill="#000000" font-family="sans-serif" font-size="14" lengthAdjust="spacing" textLength="136" x="454" y="110.1426">FastAPI Bookings API</text><rect fill="#E2E2F0" height="31.6094" rx="2.5" ry="2.5" style="stroke:#181818;stroke-width:0.5;" width="150" x="447" y="1439"/><text fill="#000000" font-family="sans-serif" font-size="14" lengthAdjust="spacing" textLength="136" x="454" y="1460.5332">FastAPI Bookings API</text><text fill="#000000" font-family="sans-serif" font-size="14" lengthAdjust="spacing" textLength="77" x="791.5" y="118.1426">PostgreSQL</text><path d="M815,67.6094 C815,57.6094 833,57.6094 833,57.6094 C833,57.6094 851,57.6094 851,67.6094 L851,93.6094 C851,103.6094 833,103.6094 833,103.6094 C833,103.6094 815,103.6094 815,93.6094 L815,67.6094 " fill="#E2E2F0" style="stroke:#181818;stroke-width:1.5;"/><path d="M815,67.6094 C815,77.6094 833,77.6094 833,77.6094 C833,77.6094 851,77.6094 851,67.6094 " fill="none" style="stroke:#181818;stroke-width:1.5;"/><text fill="#000000" font-family="sans-serif" font-size="14" lengthAdjust="spacing" textLength="77" x="791.5" y="1453.5332">PostgreSQL</text><path d="M815,1466.6094 C815,1456.6094 833,1456.6094 833,1456.6094 C833,1456.6094 851,1456.6094 851,1466.6094 L851,1492.6094 C851,1502.6094 833,1502.6094 833,1502.6094 C833,1502.6094 815,1502.6094 815,1492.6094 L815,1466.6094 " fill="#E2E2F0" style="stroke:#181818;stroke-width:1.5;"/><path d="M815,1466.6094 C815,1476.6094 833,1476.6094 833,1476.6094 C833,1476.6094 851,1476.6094 851,1466.6094 " fill="none" style="stroke:#181818;stroke-width:1.5;"/><rect fill="#E2E2F0" height="31.6094" rx="2.5" ry="2.5" style="stroke:#181818;stroke-width:0.5;" width="122" x="965" y="88.6094"/><text fill="#000000" font-family="sans-serif" font-size="14" lengthAdjust="spacing" textLength="108" x="972" y="110.1426">Outbox Publisher</text><rect fill="#E2E2F0" height="31.6094" rx="2.5" ry="2.5" style="stroke:#181818;stroke-width:0.5;" width="122" x="965" y="1439"/><text fill="#000000" font-family="sans-serif" font-size="14" lengthAdjust="spacing" textLength="108" x="972" y="1460.5332">Outbox Publisher</text><path d="M1164.5,93.6094 L1237.5,93.6094 C1242.5,93.6094 1242.5,107.4141 1242.5,107.4141 C1242.5,107.4141 1242.5,121.2188 1237.5,121.2188 L1164.5,121.2188 C1159.5,121.2188 1159.5,107.4141 1159.5,107.4141 C1159.5,107.4141 1159.5,93.6094 1164.5,93.6094 " fill="#E2E2F0" style="stroke:#181818;stroke-width:0.5;"/><path d="M1237.5,93.6094 C1232.5,93.6094 1232.5,107.4141 1232.5,107.4141 C1232.5,121.2188 1237.5,121.2188 1237.5,121.2188 " fill="none" style="stroke:#181818;stroke-width:0.5;"/><text fill="#000000" font-family="sans-serif" font-size="14" lengthAdjust="spacing" textLength="63" x="1164.5" y="113.1426">RabbitMQ</text><path d="M1164.5,1439 L1237.5,1439 C1242.5,1439 1242.5,1452.8047 1242.5,1452.8047 C1242.5,1452.8047 1242.5,1466.6094 1237.5,1466.6094 L1164.5,1466.6094 C1159.5,1466.6094 1159.5,1452.8047 1159.5,1452.8047 C1159.5,1452.8047 1159.5,1439 1164.5,1439 " fill="#E2E2F0" style="stroke:#181818;stroke-width:0.5;"/><path d="M1237.5,1439 C1232.5,1439 1232.5,1452.8047 1232.5,1452.8047 C1232.5,1466.6094 1237.5,1466.6094 1237.5,1466.6094 " fill="none" style="stroke:#181818;stroke-width:0.5;"/><text fill="#000000" font-family="sans-serif" font-size="14" lengthAdjust="spacing" textLength="63" x="1164.5" y="1458.5332">RabbitMQ</text><rect fill="#E2E2F0" height="31.6094" rx="2.5" ry="2.5" style="stroke:#181818;stroke-width:0.5;" width="98" x="1322" y="88.6094"/><text fill="#000000" font-family="sans-serif" font-size="14" lengthAdjust="spacing" textLength="84" x="1329" y="110.1426">Email Worker</text><rect fill="#E2E2F0" height="31.6094" rx="2.5" ry="2.5" style="stroke:#181818;stroke-width:0.5;" width="98" x="1322" y="1439"/><text fill="#000000" font-family="sans-serif" font-size="14" lengthAdjust="spacing" textLength="84" x="1329" y="1460.5332">Email Worker</text><rect fill="#E2E2F0" height="49.2188" rx="2.5" ry="2.5" style="stroke:#181818;stroke-width:0.5;" width="163" x="1499.5" y="71"/><text fill="#000000" font-family="sans-serif" font-size="14" lengthAdjust="spacing" textLength="91" x="1535.5" y="92.5332">Email Provider</text><text fill="#000000" font-family="sans-serif" font-size="14" lengthAdjust="spacing" textLength="149" x="1506.5" y="110.1426">(SMTP / UniSender Go)</text><rect fill="#E2E2F0" height="49.2188" rx="2.5" ry="2.5" style="stroke:#181818;stroke-width:0.5;" width="163" x="1499.5" y="1439"/><text fill="#000000" font-family="sans-serif" font-size="14" lengthAdjust="spacing" textLength="91" x="1535.5" y="1460.5332">Email Provider</text><text fill="#000000" font-family="sans-serif" font-size="14" lengthAdjust="spacing" textLength="149" x="1506.5" y="1478.1426">(SMTP / UniSender Go)</text><polygon fill="#181818" points="224,149.5703,234,153.5703,224,157.5703,228,153.5703" style="stroke:#181818;stroke-width:1.0;"/><line style="stroke:#181818;stroke-width:1.0;" x1="54" x2="230" y1="153.5703" y2="153.5703"/><text fill="#000000" font-family="sans-serif" font-size="13" lengthAdjust="spacing" textLength="119" x="61" y="148.7139">Open "My bookings"</text><polygon fill="#181818" points="510,196.2734,520,200.2734,510,204.2734,514,200.2734" style="stroke:#181818;stroke-width:1.0;"/><line style="stroke:#181818;stroke-width:1.0;" x1="236" x2="516" y1="200.2734" y2="200.2734"/><text fill="#000000" font-family="sans-serif" font-size="13" lengthAdjust="spacing" textLength="145" x="243" y="179.0654">GET /api/v1/bookings/my</text><text fill="#000000" font-family="sans-serif" font-size="13" lengthAdjust="spacing" textLength="156" x="243" y="195.417">X-Demo-Role: EMPLOYEE</text><polygon fill="#181818" points="821,226.625,831,230.625,821,234.625,825,230.625" style="stroke:#181818;stroke-width:1.0;"/><line style="stroke:#181818;stroke-width:1.0;" x1="522" x2="827" y1="230.625" y2="230.625"/><text fill="#000000" font-family="sans-serif" font-size="13" lengthAdjust="spacing" textLength="153" x="529" y="225.7686">Select employee bookings</text><polygon fill="#181818" points="533,256.9766,523,260.9766,533,264.9766,529,260.9766" style="stroke:#181818;stroke-width:1.0;"/><line style="stroke:#181818;stroke-width:1.0;stroke-dasharray:2.0,2.0;" x1="527" x2="832" y1="260.9766" y2="260.9766"/><text fill="#000000" font-family="sans-serif" font-size="13" lengthAdjust="spacing" textLength="68" x="539" y="256.1201">Booking list</text><polygon fill="#181818" points="247,287.3281,237,291.3281,247,295.3281,243,291.3281" style="stroke:#181818;stroke-width:1.0;"/><line style="stroke:#181818;stroke-width:1.0;stroke-dasharray:2.0,2.0;" x1="241" x2="521" y1="291.3281" y2="291.3281"/><text fill="#000000" font-family="sans-serif" font-size="13" lengthAdjust="spacing" textLength="112" x="253" y="286.4717">200 OK + bookings</text><polygon fill="#181818" points="224,317.6797,234,321.6797,224,325.6797,228,321.6797" style="stroke:#181818;stroke-width:1.0;"/><line style="stroke:#181818;stroke-width:1.0;" x1="54" x2="230" y1="321.6797" y2="321.6797"/><text fill="#000000" font-family="sans-serif" font-size="13" lengthAdjust="spacing" textLength="117" x="61" y="316.8232">Confirm cancellation</text><polygon fill="#181818" points="510,364.3828,520,368.3828,510,372.3828,514,368.3828" style="stroke:#181818;stroke-width:1.0;"/><line style="stroke:#181818;stroke-width:1.0;" x1="236" x2="516" y1="368.3828" y2="368.3828"/><text fill="#000000" font-family="sans-serif" font-size="13" lengthAdjust="spacing" textLength="248" x="243" y="347.1748">POST /api/v1/bookings/{booking_id}/cancel</text><text fill="#000000" font-family="sans-serif" font-size="13" lengthAdjust="spacing" textLength="156" x="243" y="363.5264">X-Demo-Role: EMPLOYEE</text><polygon fill="#181818" points="821,394.7344,831,398.7344,821,402.7344,825,398.7344" style="stroke:#181818;stroke-width:1.0;"/><line style="stroke:#181818;stroke-width:1.0;" x1="522" x2="827" y1="398.7344" y2="398.7344"/><text fill="#000000" font-family="sans-serif" font-size="13" lengthAdjust="spacing" textLength="111" x="529" y="393.8779">Load booking by ID</text><polygon fill="#181818" points="533,425.0859,523,429.0859,533,433.0859,529,429.0859" style="stroke:#181818;stroke-width:1.0;"/><line style="stroke:#181818;stroke-width:1.0;stroke-dasharray:2.0,2.0;" x1="527" x2="832" y1="429.0859" y2="429.0859"/><text fill="#000000" font-family="sans-serif" font-size="13" lengthAdjust="spacing" textLength="116" x="539" y="424.2295">Booking or no result</text><path d="M10,444.0859 L71,444.0859 L71,452.4375 L61,462.4375 L10,462.4375 L10,444.0859 " fill="#EEEEEE" style="stroke:#000000;stroke-width:1.5;"/><rect fill="none" height="578.5078" style="stroke:#000000;stroke-width:1.5;" width="1672.5" x="10" y="444.0859"/><text fill="#000000" font-family="sans-serif" font-size="13" font-weight="bold" lengthAdjust="spacing" textLength="16" x="25" y="458.5811">alt</text><text fill="#000000" font-family="sans-serif" font-size="11" font-weight="bold" lengthAdjust="spacing" textLength="135" x="86" y="457.5049">[Booking does not exist]</text><polygon fill="#181818" points="247,480.7891,237,484.7891,247,488.7891,243,484.7891" style="stroke:#181818;stroke-width:1.0;"/><line style="stroke:#181818;stroke-width:1.0;stroke-dasharray:2.0,2.0;" x1="241" x2="521" y1="484.7891" y2="484.7891"/><text fill="#000000" font-family="sans-serif" font-size="13" lengthAdjust="spacing" textLength="170" x="253" y="479.9326">404 BOOKING_NOT_FOUND</text><line style="stroke:#000000;stroke-width:1.0;stroke-dasharray:2.0,2.0;" x1="10" x2="1682.5" y1="493.7891" y2="493.7891"/><text fill="#000000" font-family="sans-serif" font-size="11" font-weight="bold" lengthAdjust="spacing" textLength="190" x="15" y="505.208">[Booking belongs to another user]</text><polygon fill="#181818" points="247,526.9766,237,530.9766,247,534.9766,243,530.9766" style="stroke:#181818;stroke-width:1.0;"/><line style="stroke:#181818;stroke-width:1.0;stroke-dasharray:2.0,2.0;" x1="241" x2="521" y1="530.9766" y2="530.9766"/><text fill="#000000" font-family="sans-serif" font-size="13" lengthAdjust="spacing" textLength="100" x="253" y="526.1201">403 FORBIDDEN</text><line style="stroke:#000000;stroke-width:1.0;stroke-dasharray:2.0,2.0;" x1="10" x2="1682.5" y1="539.9766" y2="539.9766"/><text fill="#000000" font-family="sans-serif" font-size="11" font-weight="bold" lengthAdjust="spacing" textLength="130" x="15" y="551.3955">[Booking is not ACTIVE]</text><polygon fill="#181818" points="247,573.1641,237,577.1641,247,581.1641,243,577.1641" style="stroke:#181818;stroke-width:1.0;"/><line style="stroke:#181818;stroke-width:1.0;stroke-dasharray:2.0,2.0;" x1="241" x2="521" y1="577.1641" y2="577.1641"/><text fill="#000000" font-family="sans-serif" font-size="13" lengthAdjust="spacing" textLength="171" x="253" y="572.3076">409 BOOKING_NOT_ACTIVE</text><line style="stroke:#000000;stroke-width:1.0;stroke-dasharray:2.0,2.0;" x1="10" x2="1682.5" y1="586.1641" y2="586.1641"/><text fill="#000000" font-family="sans-serif" font-size="11" font-weight="bold" lengthAdjust="spacing" textLength="169" x="15" y="597.583">[Less than 30 minutes remain]</text><polygon fill="#181818" points="247,619.3516,237,623.3516,247,627.3516,243,623.3516" style="stroke:#181818;stroke-width:1.0;"/><line style="stroke:#181818;stroke-width:1.0;stroke-dasharray:2.0,2.0;" x1="241" x2="521" y1="623.3516" y2="623.3516"/><text fill="#000000" font-family="sans-serif" font-size="13" lengthAdjust="spacing" textLength="262" x="253" y="618.4951">409 BOOKING_CANCELLATION_TOO_LATE</text><line style="stroke:#000000;stroke-width:1.0;stroke-dasharray:2.0,2.0;" x1="10" x2="1682.5" y1="632.3516" y2="632.3516"/><text fill="#000000" font-family="sans-serif" font-size="11" font-weight="bold" lengthAdjust="spacing" textLength="134" x="15" y="643.7705">[Cancellation is allowed]</text><polygon fill="#181818" points="821,714.5938,831,718.5938,821,722.5938,825,718.5938" style="stroke:#181818;stroke-width:1.0;"/><line style="stroke:#181818;stroke-width:1.0;" x1="522" x2="827" y1="718.5938" y2="718.5938"/><text fill="#000000" font-family="sans-serif" font-size="13" lengthAdjust="spacing" textLength="107" x="529" y="664.6826">In one transaction:</text><text fill="#000000" font-family="sans-serif" font-size="13" lengthAdjust="spacing" textLength="155" x="529" y="681.0342">set status = CANCELLED;</text><text fill="#000000" font-family="sans-serif" font-size="13" lengthAdjust="spacing" textLength="255" x="529" y="697.3857">set cancelled_at, cancelled_by, updated_at;</text><text fill="#000000" font-family="sans-serif" font-size="13" lengthAdjust="spacing" textLength="287" x="529" y="713.7373">insert BookingCancelled outbox event (PENDING)</text><polygon fill="#181818" points="533,744.9453,523,748.9453,533,752.9453,529,748.9453" style="stroke:#181818;stroke-width:1.0;"/><line style="stroke:#181818;stroke-width:1.0;stroke-dasharray:2.0,2.0;" x1="527" x2="832" y1="748.9453" y2="748.9453"/><text fill="#000000" font-family="sans-serif" font-size="13" lengthAdjust="spacing" textLength="111" x="539" y="744.0889">Commit successful</text><path d="M437,763.9453 L498,763.9453 L498,772.2969 L488,782.2969 L437,782.2969 L437,763.9453 " fill="#EEEEEE" style="stroke:#000000;stroke-width:1.5;"/><rect fill="none" height="190.9453" style="stroke:#000000;stroke-width:1.5;" width="1235.5" x="437" y="763.9453"/><text fill="#000000" font-family="sans-serif" font-size="13" font-weight="bold" lengthAdjust="spacing" textLength="16" x="452" y="778.4404">alt</text><text fill="#000000" font-family="sans-serif" font-size="11" font-weight="bold" lengthAdjust="spacing" textLength="327" x="513" y="777.3643">[Serverless mode: NOTIFICATION_DELIVERY=unisender_api]</text><polygon fill="#181818" points="1569,800.6484,1579,804.6484,1569,808.6484,1573,804.6484" style="stroke:#181818;stroke-width:1.0;"/><line style="stroke:#181818;stroke-width:1.0;" x1="522" x2="1575" y1="804.6484" y2="804.6484"/><text fill="#000000" font-family="sans-serif" font-size="13" lengthAdjust="spacing" textLength="226" x="529" y="799.792">Send BookingCancelled email [HTTPS]</text><polygon fill="#181818" points="533,831,523,835,533,839,529,835" style="stroke:#181818;stroke-width:1.0;"/><line style="stroke:#181818;stroke-width:1.0;stroke-dasharray:2.0,2.0;" x1="527" x2="1580" y1="835" y2="835"/><text fill="#000000" font-family="sans-serif" font-size="13" lengthAdjust="spacing" textLength="81" x="539" y="830.1436">Delivery result</text><path d="M527,848 L527,890 L772,890 L772,858 L762,848 L527,848 " fill="#FEFFDD" style="stroke:#181818;stroke-width:0.5;"/><path d="M762,848 L762,858 L772,858 L762,848 " fill="#FEFFDD" style="stroke:#181818;stroke-width:0.5;"/><text fill="#000000" font-family="sans-serif" font-size="13" lengthAdjust="spacing" textLength="224" x="533" y="866.4951">An email failure is logged and does not</text><text fill="#000000" font-family="sans-serif" font-size="13" lengthAdjust="spacing" textLength="213" x="533" y="882.8467">roll back the committed cancellation.</text><line style="stroke:#000000;stroke-width:1.0;stroke-dasharray:2.0,2.0;" x1="437" x2="1672.5" y1="896.7031" y2="896.7031"/><text fill="#000000" font-family="sans-serif" font-size="11" font-weight="bold" lengthAdjust="spacing" textLength="179" x="442" y="908.1221">[Asynchronous RabbitMQ mode]</text><line style="stroke:#181818;stroke-width:1.0;" x1="522" x2="564" y1="933.8906" y2="933.8906"/><line style="stroke:#181818;stroke-width:1.0;" x1="564" x2="564" y1="933.8906" y2="946.8906"/><line style="stroke:#181818;stroke-width:1.0;" x1="523" x2="564" y1="946.8906" y2="946.8906"/><polygon fill="#181818" points="533,942.8906,523,946.8906,533,950.8906,529,946.8906" style="stroke:#181818;stroke-width:1.0;"/><text fill="#000000" font-family="sans-serif" font-size="13" lengthAdjust="spacing" textLength="140" x="529" y="929.0342">Direct sender is skipped</text><polygon fill="#181818" points="247,980.2422,237,984.2422,247,988.2422,243,984.2422" style="stroke:#181818;stroke-width:1.0;"/><line style="stroke:#181818;stroke-width:1.0;stroke-dasharray:2.0,2.0;" x1="241" x2="521" y1="984.2422" y2="984.2422"/><text fill="#000000" font-family="sans-serif" font-size="13" lengthAdjust="spacing" textLength="164" x="253" y="979.3857">200 OK + cancelled booking</text><polygon fill="#181818" points="65,1010.5938,55,1014.5938,65,1018.5938,61,1014.5938" style="stroke:#181818;stroke-width:1.0;"/><line style="stroke:#181818;stroke-width:1.0;stroke-dasharray:2.0,2.0;" x1="59" x2="235" y1="1014.5938" y2="1014.5938"/><text fill="#000000" font-family="sans-serif" font-size="13" lengthAdjust="spacing" textLength="158" x="71" y="1009.7373">Show cancellation success</text><path d="M781.5,1036.5938 L846.5,1036.5938 L846.5,1044.9453 L836.5,1054.9453 L781.5,1054.9453 L781.5,1036.5938 " fill="#EEEEEE" style="stroke:#000000;stroke-width:1.5;"/><rect fill="none" height="386.4063" style="stroke:#000000;stroke-width:1.5;" width="891" x="781.5" y="1036.5938"/><text fill="#000000" font-family="sans-serif" font-size="13" font-weight="bold" lengthAdjust="spacing" textLength="20" x="796.5" y="1051.0889">opt</text><text fill="#000000" font-family="sans-serif" font-size="11" font-weight="bold" lengthAdjust="spacing" textLength="219" x="861.5" y="1050.0127">[Asynchronous notification processing]</text><polygon fill="#181818" points="844,1073.2969,834,1077.2969,844,1081.2969,840,1077.2969" style="stroke:#181818;stroke-width:1.0;"/><line style="stroke:#181818;stroke-width:1.0;" x1="838" x2="1025" y1="1077.2969" y2="1077.2969"/><text fill="#000000" font-family="sans-serif" font-size="13" lengthAdjust="spacing" textLength="169" x="850" y="1072.4404">Read PENDING outbox event</text><polygon fill="#181818" points="1014,1103.6484,1024,1107.6484,1014,1111.6484,1018,1107.6484" style="stroke:#181818;stroke-width:1.0;"/><line style="stroke:#181818;stroke-width:1.0;stroke-dasharray:2.0,2.0;" x1="833" x2="1020" y1="1107.6484" y2="1107.6484"/><text fill="#000000" font-family="sans-serif" font-size="13" lengthAdjust="spacing" textLength="138" x="840" y="1102.792">BookingCancelled event</text><polygon fill="#181818" points="1189,1134,1199,1138,1189,1142,1193,1138" style="stroke:#181818;stroke-width:1.0;"/><line style="stroke:#181818;stroke-width:1.0;" x1="1026" x2="1195" y1="1138" y2="1138"/><text fill="#000000" font-family="sans-serif" font-size="13" lengthAdjust="spacing" textLength="151" x="1033" y="1133.1436">Publish booking.cancelled</text><polygon fill="#181818" points="844,1164.3516,834,1168.3516,844,1172.3516,840,1168.3516" style="stroke:#181818;stroke-width:1.0;"/><line style="stroke:#181818;stroke-width:1.0;" x1="838" x2="1025" y1="1168.3516" y2="1168.3516"/><text fill="#000000" font-family="sans-serif" font-size="13" lengthAdjust="spacing" textLength="140" x="850" y="1163.4951">Mark event PUBLISHED</text><polygon fill="#181818" points="1359,1194.7031,1369,1198.7031,1359,1202.7031,1363,1198.7031" style="stroke:#181818;stroke-width:1.0;"/><line style="stroke:#181818;stroke-width:1.0;" x1="1201" x2="1365" y1="1198.7031" y2="1198.7031"/><text fill="#000000" font-family="sans-serif" font-size="13" lengthAdjust="spacing" textLength="146" x="1208" y="1193.8467">Deliver BookingCancelled</text><polygon fill="#181818" points="844,1225.0547,834,1229.0547,844,1233.0547,840,1229.0547" style="stroke:#181818;stroke-width:1.0;"/><line style="stroke:#181818;stroke-width:1.0;" x1="838" x2="1370" y1="1229.0547" y2="1229.0547"/><text fill="#000000" font-family="sans-serif" font-size="13" lengthAdjust="spacing" textLength="200" x="850" y="1224.1982">Load user, room and office context</text><polygon fill="#181818" points="1359,1255.4063,1369,1259.4063,1359,1263.4063,1363,1259.4063" style="stroke:#181818;stroke-width:1.0;"/><line style="stroke:#181818;stroke-width:1.0;stroke-dasharray:2.0,2.0;" x1="833" x2="1365" y1="1259.4063" y2="1259.4063"/><text fill="#000000" font-family="sans-serif" font-size="13" lengthAdjust="spacing" textLength="111" x="840" y="1254.5498">Notification context</text><polygon fill="#181818" points="1569,1285.7578,1579,1289.7578,1569,1293.7578,1573,1289.7578" style="stroke:#181818;stroke-width:1.0;"/><line style="stroke:#181818;stroke-width:1.0;" x1="1371" x2="1575" y1="1289.7578" y2="1289.7578"/><text fill="#000000" font-family="sans-serif" font-size="13" lengthAdjust="spacing" textLength="186" x="1378" y="1284.9014">Send cancellation email [SMTP]</text><path d="M1149.5,1304.7578 L1210.5,1304.7578 L1210.5,1313.1094 L1200.5,1323.1094 L1149.5,1323.1094 L1149.5,1304.7578 " fill="#EEEEEE" style="stroke:#000000;stroke-width:1.5;"/><rect fill="none" height="111.2422" style="stroke:#000000;stroke-width:1.5;" width="280.5" x="1149.5" y="1304.7578"/><text fill="#000000" font-family="sans-serif" font-size="13" font-weight="bold" lengthAdjust="spacing" textLength="16" x="1164.5" y="1319.2529">alt</text><text fill="#000000" font-family="sans-serif" font-size="11" font-weight="bold" lengthAdjust="spacing" textLength="65" x="1225.5" y="1318.1768">[Email sent]</text><polygon fill="#181818" points="1212,1341.4609,1202,1345.4609,1212,1349.4609,1208,1345.4609" style="stroke:#181818;stroke-width:1.0;"/><line style="stroke:#181818;stroke-width:1.0;" x1="1206" x2="1370" y1="1345.4609" y2="1345.4609"/><text fill="#000000" font-family="sans-serif" font-size="13" lengthAdjust="spacing" textLength="27" x="1218" y="1340.6045">ACK</text><line style="stroke:#000000;stroke-width:1.0;stroke-dasharray:2.0,2.0;" x1="1149.5" x2="1430" y1="1354.4609" y2="1354.4609"/><text fill="#000000" font-family="sans-serif" font-size="11" font-weight="bold" lengthAdjust="spacing" textLength="70" x="1154.5" y="1365.8799">[Email failed]</text><polygon fill="#181818" points="1212,1404,1202,1408,1212,1412,1208,1408" style="stroke:#181818;stroke-width:1.0;"/><line style="stroke:#181818;stroke-width:1.0;" x1="1206" x2="1370" y1="1408" y2="1408"/><text fill="#000000" font-family="sans-serif" font-size="13" lengthAdjust="spacing" textLength="129" x="1218" y="1386.792">NACK (requeue=false)</text><text fill="#000000" font-family="sans-serif" font-size="13" lengthAdjust="spacing" textLength="79" x="1218" y="1403.1436">Route to DLQ</text><!--SRC=[bLRRRk9847ttLvJob6Z3aDsPbsMLbOXjCbO0Eq1sThGPeROfe1Mxcsctaw3L_FjKjszu0dkn1DZkEdKvTReQpNMAu3AHO0hXYu0RAP-us40FvlYrG7eF7cSRnJB7OOcM2lnibyezehDZIlE4xvZGSFO9OnWfAJIArHcml7decerOheTHK8V9WHwiEVqwAwPPp7A4IEPwet1-F-wYmqB7yXMY8avvlaLbaSsJG_aM23CMnrnFxhjGFsCyXKzIFLMmylQOKQJaCr-XUXJdyyaYWZuy23wdKb31hRomQ6lfE3KNqFkzAHW64EvGmDba3t5LvfdJh9Ab8M00j_u2-cp7-yy_zskxVhP_57_sFCnaRoPJ780_YSRXPzzt38YmBJNaOeuf9Xgmpg9sunnOzPg0TMk9BLswwsRzozKLX7VmK-lcL7sk56kkCaYiRbAckHH7Aep2-P4I_wxkbdprhLzw-3yrZoLRrHb2l8V0- -TgIR52WiAyI3L9EDNDoafYJcl4twjX1EWwmig7gmzm4uPtmVHsEGqNor7uCFKSJ4ccjQCOKscqh2KmyaTIX28dRPtq-1v6uUmcy3n_slN4ouI6xYBump-D_xMJKMLj7OqnfposJC3xAyYuA3JLg93KAlwBEtSuTVtnUBW8mkbo4OPBkgqykmUzDdcoD9Klk6gz_j2dG80K25enaTFW8DJWKUIe8TTC5pbSGnNCztuh5oeruMh9zEN1Kxo_X697my6ka34dSzNqqQqDGPRZ0P-HDlDvv4yzgkd2PdXK8gxCCau95Kb2jAqBsj36rcXaZkePLMhOpEIAD4b41wF0BPdn_34nFljyNGYUsy6m99LRy04TvJGnkvHuVfCisjM_FYuMqVnB0oqnROeUffmIsTS2hkr89GYARxOQvDeEJsYkeQYSh-chK6YwbShDXe8oogIM_G52oJI5c2LF91s4nD92R7Vszxl6tfHZujiNLXl3V2-IBKbAKcFh-Mk9-v6JgYgkpDmggJFfvKzyjwl4PCwCKrfjHbIZZdeKM4GxWYpzrUoY3cpbIwUOkkUE3IPtkbi2LSVNF2bDTqeQqpf6SzoyKVmCQJ9LgkjeyPW2MpU38zfeKOVH6cO7zVkw-dSD7_-IuuIffsg3H0ytus3-qVSifF5DYF9eRDNt9a6BgAoEpcSp_Yv9LZApafDhOjC8YxhpUfIE9kJqaFf3G1kkiwywNQtsb3crlpHRkJJFQqQxlWue7RfthQBzPWDLrPw4JGa7vmhjdu_hDIFqnQEOKV_H70ZU-BvHjVby1m00]--></g></svg>